<?xml version="1.0" encoding="UTF-8" standalone="no"?>
<!-- Created with Inkscape (http://www.inkscape.org/) -->

<svg
   width="26mm"
   height="37mm"
   viewBox="0 0 26 37"
   version="1.1"
   id="svg5"
   inkscape:version="1.1.1 (c3084ef, 2021-09-22)"
   sodipodi:docname="logo-M-gris.svg"
   xmlns:inkscape="http://www.inkscape.org/namespaces/inkscape"
   xmlns:sodipodi="http://sodipodi.sourceforge.net/DTD/sodipodi-0.dtd"
   xmlns="http://www.w3.org/2000/svg"
   xmlns:svg="http://www.w3.org/2000/svg">
  <sodipodi:namedview
     id="namedview7"
     pagecolor="#505050"
     bordercolor="#ffffff"
     borderopacity="1"
     inkscape:pageshadow="0"
     inkscape:pageopacity="0"
     inkscape:pagecheckerboard="1"
     inkscape:document-units="mm"
     showgrid="false"
     inkscape:zoom="4.5757133"
     inkscape:cx="42.834851"
     inkscape:cy="59.772101"
     inkscape:window-width="1440"
     inkscape:window-height="800"
     inkscape:window-x="0"
     inkscape:window-y="23"
     inkscape:window-maximized="1"
     inkscape:current-layer="text17222"
     inkscape:snap-nodes="false"
     inkscape:snap-global="false" />
  <defs
     id="defs2" />
  <g
     inkscape:label="Layer 1"
     inkscape:groupmode="layer"
     id="layer1">
    <text
       xml:space="preserve"
       style="font-style:normal;font-weight:normal;font-size:10.5833px;line-height:1.25;font-family:Kokonor;fill:#000000;fill-opacity:1;stroke:none;stroke-width:0.264583;-inkscape-font-specification:'Kokonor, Normal';font-stretch:normal;font-variant:normal;font-variant-ligatures:normal;font-variant-caps:normal;font-variant-numeric:normal;font-variant-east-asian:normal"
       x="4.4517922"
       y="30.751614"
       id="text12972"><tspan
         sodipodi:role="line"
         id="tspan13236" /></text>
    <text
       xml:space="preserve"
       style="font-style:normal;font-weight:normal;font-size:10.5833px;line-height:1.25;font-family:sans-serif;fill:#000000;fill-opacity:1;stroke:none;stroke-width:0.264583"
       x="8.0817156"
       y="34.107578"
       id="text15302"><tspan
         sodipodi:role="line"
         id="tspan15300"
         style="stroke-width:0.264583"
         x="8.0817156"
         y="34.107578" /></text>
    <text
       xml:space="preserve"
       style="font-size:10.5833px;line-height:1.25;font-family:Kokonor;-inkscape-font-specification:'Kokonor, Normal';stroke-width:0.264583"
       x="10.88977"
       y="35.134914"
       id="text16692"><tspan
         sodipodi:role="line"
         id="tspan16690"
         style="stroke-width:0.264583"
         x="10.88977"
         y="35.134914" /></text>
    <g
       aria-label="M"
       id="text17222"
       style="font-size:36.4308px;line-height:1.25;font-family:'Savoye LET';-inkscape-font-specification:'Savoye LET, Normal';fill:#918f8d;stroke:#918f8d;stroke-width:0.91077">
      <rect
         style="fill:#090c11;fill-opacity:0.986667;stroke:none;stroke-width:0.711705;stroke-linecap:round;stroke-linejoin:round;stroke-miterlimit:4;stroke-dasharray:none;stroke-opacity:1"
         id="rect45584"
         width="7.4231229"
         height="5.1343269"
         x="-17.715693"
         y="5.5520601" />
      <rect
         style="fill:#bca597;fill-opacity:1;stroke:none;stroke-width:0.711705;stroke-linecap:round;stroke-linejoin:round;stroke-miterlimit:4;stroke-dasharray:none;stroke-opacity:1"
         id="rect45584-1"
         width="7.4231229"
         height="5.1343269"
         x="-17.715693"
         y="10.686368" />
      <rect
         style="fill:#918f8d;fill-opacity:1;stroke:none;stroke-width:0.711705;stroke-linecap:round;stroke-linejoin:round;stroke-miterlimit:4;stroke-dasharray:none;stroke-opacity:1"
         id="rect45584-1-1"
         width="7.4231229"
         height="5.1343269"
         x="-17.715693"
         y="26.089291" />
      <rect
         style="fill:#103742;fill-opacity:1;stroke:none;stroke-width:0.711705;stroke-linecap:round;stroke-linejoin:round;stroke-miterlimit:4;stroke-dasharray:none;stroke-opacity:1"
         id="rect45584-1-1-1"
         width="7.4231229"
         height="5.1343269"
         x="-10.292565"
         y="5.5520601" />
      <rect
         style="fill:#92460d;fill-opacity:1;stroke:none;stroke-width:0.711705;stroke-linecap:round;stroke-linejoin:round;stroke-miterlimit:4;stroke-dasharray:none;stroke-opacity:1"
         id="rect45584-1-7"
         width="7.4231229"
         height="5.1343269"
         x="-17.715693"
         y="15.820676" />
      <rect
         style="fill:#365f49;fill-opacity:1;stroke:none;stroke-width:0.711705;stroke-linecap:round;stroke-linejoin:round;stroke-miterlimit:4;stroke-dasharray:none;stroke-opacity:1"
         id="rect45584-1-7-8"
         width="7.4231229"
         height="5.1343269"
         x="-17.715693"
         y="20.954983" />
      <rect
         style="fill:#723c2e;fill-opacity:1;stroke:none;stroke-width:0.711705;stroke-linecap:round;stroke-linejoin:round;stroke-miterlimit:4;stroke-dasharray:none;stroke-opacity:1"
         id="rect45584-1-7-8-0"
         width="7.4231229"
         height="5.1343269"
         x="-10.292565"
         y="15.820676" />
      <rect
         style="fill:#274535;fill-opacity:1;stroke:none;stroke-width:0.711705;stroke-linecap:round;stroke-linejoin:round;stroke-miterlimit:4;stroke-dasharray:none;stroke-opacity:1"
         id="rect45584-1-7-8-0-1"
         width="7.4231229"
         height="5.1343269"
         x="-10.292565"
         y="20.954983" />
      <rect
         style="fill:#103742;fill-opacity:1;stroke:#103742;stroke-width:13.4686;stroke-linecap:round;stroke-linejoin:round;stroke-miterlimit:4;stroke-dasharray:none;stroke-opacity:1"
         id="rect1531"
         width="11.531365"
         height="11.531365"
         x="7.3925099"
         y="7.1101341" />
      <g
         id="g4853"
         transform="matrix(0.90775788,0,0,0.90775788,1.7124692,-1.3548102)">
        <path
           d="m 19.103148,25.530703 h -1.363029 l 2.995824,-14.326002 0.09939,-0.496938 q 0.09939,-0.525335 0.09939,-0.7241088 0,-0.269766 -0.141982,-0.440145 -0.141983,-0.184577 -0.397551,-0.184577 -0.39755,0 -0.894488,0.48274 -0.496937,0.4827388 -1.249443,1.6185958 -1.164254,1.732183 -2.541481,4.813196 -1.079064,2.427896 -1.845768,4.728007 -0.752505,2.285913 -1.235245,4.529232 h -1.178457 l 3.293986,-15.419265 q 0.156181,-0.7241088 0.156181,-1.1358578 0,-0.184577 -0.07099,-0.354955 -0.07099,-0.170379 -0.198774,-0.255568 -0.113586,-0.08519 -0.269767,-0.08519 -0.667316,0 -1.632795,1.306236 -0.965479,1.2920388 -2.285913,4.0322948 -0.6247225,1.235244 -1.2068495,2.584076 -0.582127,1.34883 -1.03647,2.513084 -0.454343,1.164254 -1.0222716,2.839644 -0.8234967,2.442093 -1.1926503,3.975501 H 4.7913428 l 0.042594,-0.198775 0.6105234,-2.427896 q 0.3265594,-1.391425 0.5679291,-2.47049 1.1216593,-5.082962 1.6469932,-8.305957 0.440145,-2.5272828 0.440145,-3.6489428 0,-0.8234962 -0.255568,-1.2636409 -0.241369,-0.454343 -0.6815145,-0.454343 -1.0790645,0 -1.9167595,2.8680399 Q 4.7203514,11.431872 4.4363871,13.51901 L 3.371521,12.823297 Q 3.6128907,10.991728 4.1666212,9.5151132 4.73455,8.0384982 5.5012538,7.1866048 6.2821557,6.3205135 7.077256,6.3205135 q 0.9086855,0 1.4198215,0.9654788 0.525334,0.9654789 0.525334,2.6408689 0,1.4056228 -0.255567,3.1945988 -0.07099,0.525334 -0.454343,2.669265 l -0.567929,3.095212 0.08519,-0.269766 q 1.022272,-2.782852 2.9674285,-6.559578 1.221047,-2.3427048 2.257517,-3.5353558 1.050668,-1.2068484 1.902561,-1.2068484 0.539532,0 0.894488,0.4259466 0.354955,0.4117488 0.354955,1.0648668 0,0.667315 -0.269766,1.9309568 l -1.646994,7.865813 q 0.184577,-0.525334 0.851894,-2.016146 1.945155,-4.31626 3.322383,-6.21882 1.377227,-1.9167598 2.541481,-1.9167598 0.582127,0 0.922884,0.411748 0.354956,0.39755 0.354956,1.064867 0,0.5395318 -0.24137,1.6327948 z"
           id="path1533"
           style="fill:#274535;fill-opacity:1;stroke:#274535;stroke-width:0.726949;stroke-opacity:1" />
        <path
           d="m 18.692407,25.03284 h -1.363029 l 2.995824,-14.326002 0.09939,-0.496938 q 0.09939,-0.5253347 0.09939,-0.7241085 0,-0.269766 -0.141982,-0.440145 -0.141983,-0.184577 -0.397551,-0.184577 -0.39755,0 -0.894488,0.48274 -0.496937,0.4827388 -1.249443,1.6185955 -1.164254,1.732183 -2.541481,4.813196 -1.079064,2.427896 -1.845768,4.728007 -0.752505,2.285913 -1.235245,4.529232 H 11.039567 L 14.333553,9.6135753 q 0.156181,-0.7241088 0.156181,-1.1358578 0,-0.184577 -0.07099,-0.354955 -0.07099,-0.170379 -0.198774,-0.255568 -0.113586,-0.08519 -0.269767,-0.08519 -0.667316,0 -1.632795,1.306236 -0.965479,1.2920385 -2.285913,4.0322945 -0.6247228,1.235244 -1.2068498,2.584076 -0.582127,1.34883 -1.03647,2.513084 -0.454343,1.164254 -1.0222716,2.839644 -0.8234967,2.442093 -1.1926503,3.975501 H 4.3806015 l 0.042594,-0.198775 0.6105234,-2.427896 q 0.3265594,-1.391425 0.5679291,-2.47049 1.1216593,-5.082962 1.6469932,-8.305957 0.440145,-2.5272825 0.440145,-3.6489425 0,-0.8234962 -0.255568,-1.2636409 -0.241369,-0.454343 -0.6815145,-0.454343 -1.0790645,0 -1.9167595,2.8680399 Q 4.3096101,10.934009 4.0256458,13.021147 L 2.9607797,12.325434 Q 3.2021494,10.493865 3.7558799,9.0172505 4.3238087,7.5406355 5.0905125,6.6887421 5.8714144,5.8226508 6.6665147,5.8226508 q 0.9086855,0 1.4198215,0.9654788 0.525334,0.9654789 0.525334,2.6408689 0,1.4056225 -0.255567,3.1945985 -0.07099,0.525334 -0.454343,2.669265 l -0.567929,3.095212 0.08519,-0.269766 q 1.022272,-2.782852 2.9674288,-6.559578 1.221047,-2.3427045 2.257517,-3.5353555 1.050668,-1.2068484 1.902561,-1.2068484 0.539532,0 0.894488,0.4259466 0.354955,0.4117488 0.354955,1.0648668 0,0.667315 -0.269766,1.9309565 l -1.646994,7.865813 q 0.184577,-0.525334 0.851894,-2.016146 1.945155,-4.31626 3.322383,-6.2188197 1.377227,-1.9167598 2.541481,-1.9167598 0.582127,0 0.922884,0.411748 0.354956,0.39755 0.354956,1.064867 0,0.5395318 -0.24137,1.6327945 z"
           id="path1615"
           style="stroke-width:0.726949" />
      </g>
      <g
         id="g9632"
         transform="translate(30.473516,-1.9137957)">
        <rect
           style="fill:#103742;fill-opacity:1;stroke:#103742;stroke-width:13.4686;stroke-linecap:round;stroke-linejoin:round;stroke-miterlimit:4;stroke-dasharray:none;stroke-opacity:1"
           id="rect9620"
           width="11.531365"
           height="11.531365"
           x="7.3925099"
           y="7.1101341" />
        <g
           id="g9626"
           transform="matrix(0.90775788,0,0,0.90775788,1.7124692,-1.3548102)">
          <path
             d="m 19.103148,25.530703 h -1.363029 l 2.995824,-14.326002 0.09939,-0.496938 q 0.09939,-0.525335 0.09939,-0.7241088 0,-0.269766 -0.141982,-0.440145 -0.141983,-0.184577 -0.397551,-0.184577 -0.39755,0 -0.894488,0.48274 -0.496937,0.4827388 -1.249443,1.6185958 -1.164254,1.732183 -2.541481,4.813196 -1.079064,2.427896 -1.845768,4.728007 -0.752505,2.285913 -1.235245,4.529232 h -1.178457 l 3.293986,-15.419265 q 0.156181,-0.7241088 0.156181,-1.1358578 0,-0.184577 -0.07099,-0.354955 -0.07099,-0.170379 -0.198774,-0.255568 -0.113586,-0.08519 -0.269767,-0.08519 -0.667316,0 -1.632795,1.306236 -0.965479,1.2920388 -2.285913,4.0322948 -0.6247225,1.235244 -1.2068495,2.584076 -0.582127,1.34883 -1.03647,2.513084 -0.454343,1.164254 -1.0222716,2.839644 -0.8234967,2.442093 -1.1926503,3.975501 H 4.7913428 l 0.042594,-0.198775 0.6105234,-2.427896 q 0.3265594,-1.391425 0.5679291,-2.47049 1.1216593,-5.082962 1.6469932,-8.305957 0.440145,-2.5272828 0.440145,-3.6489428 0,-0.8234962 -0.255568,-1.2636409 -0.241369,-0.454343 -0.6815145,-0.454343 -1.0790645,0 -1.9167595,2.8680399 Q 4.7203514,11.431872 4.4363871,13.51901 L 3.371521,12.823297 Q 3.6128907,10.991728 4.1666212,9.5151132 4.73455,8.0384982 5.5012538,7.1866048 6.2821557,6.3205135 7.077256,6.3205135 q 0.9086855,0 1.4198215,0.9654788 0.525334,0.9654789 0.525334,2.6408689 0,1.4056228 -0.255567,3.1945988 -0.07099,0.525334 -0.454343,2.669265 l -0.567929,3.095212 0.08519,-0.269766 q 1.022272,-2.782852 2.9674285,-6.559578 1.221047,-2.3427048 2.257517,-3.5353558 1.050668,-1.2068484 1.902561,-1.2068484 0.539532,0 0.894488,0.4259466 0.354955,0.4117488 0.354955,1.0648668 0,0.667315 -0.269766,1.9309568 l -1.646994,7.865813 q 0.184577,-0.525334 0.851894,-2.016146 1.945155,-4.31626 3.322383,-6.21882 1.377227,-1.9167598 2.541481,-1.9167598 0.582127,0 0.922884,0.411748 0.354956,0.39755 0.354956,1.064867 0,0.5395318 -0.24137,1.6327948 z"
             id="path9622"
             style="fill:#274535;fill-opacity:1;stroke:#274535;stroke-width:0.726949;stroke-opacity:1" />
          <path
             d="m 18.692407,25.03284 h -1.363029 l 2.995824,-14.326002 0.09939,-0.496938 q 0.09939,-0.5253347 0.09939,-0.7241085 0,-0.269766 -0.141982,-0.440145 -0.141983,-0.184577 -0.397551,-0.184577 -0.39755,0 -0.894488,0.48274 -0.496937,0.4827388 -1.249443,1.6185955 -1.164254,1.732183 -2.541481,4.813196 -1.079064,2.427896 -1.845768,4.728007 -0.752505,2.285913 -1.235245,4.529232 H 11.039567 L 14.333553,9.6135753 q 0.156181,-0.7241088 0.156181,-1.1358578 0,-0.184577 -0.07099,-0.354955 -0.07099,-0.170379 -0.198774,-0.255568 -0.113586,-0.08519 -0.269767,-0.08519 -0.667316,0 -1.632795,1.306236 -0.965479,1.2920385 -2.285913,4.0322945 -0.6247228,1.235244 -1.2068498,2.584076 -0.582127,1.34883 -1.03647,2.513084 -0.454343,1.164254 -1.0222716,2.839644 -0.8234967,2.442093 -1.1926503,3.975501 H 4.3806015 l 0.042594,-0.198775 0.6105234,-2.427896 q 0.3265594,-1.391425 0.5679291,-2.47049 1.1216593,-5.082962 1.6469932,-8.305957 0.440145,-2.5272825 0.440145,-3.6489425 0,-0.8234962 -0.255568,-1.2636409 -0.241369,-0.454343 -0.6815145,-0.454343 -1.0790645,0 -1.9167595,2.8680399 Q 4.3096101,10.934009 4.0256458,13.021147 L 2.9607797,12.325434 Q 3.2021494,10.493865 3.7558799,9.0172505 4.3238087,7.5406355 5.0905125,6.6887421 5.8714144,5.8226508 6.6665147,5.8226508 q 0.9086855,0 1.4198215,0.9654788 0.525334,0.9654789 0.525334,2.6408689 0,1.4056225 -0.255567,3.1945985 -0.07099,0.525334 -0.454343,2.669265 l -0.567929,3.095212 0.08519,-0.269766 q 1.022272,-2.782852 2.9674288,-6.559578 1.221047,-2.3427045 2.257517,-3.5353555 1.050668,-1.2068484 1.902561,-1.2068484 0.539532,0 0.894488,0.4259466 0.354955,0.4117488 0.354955,1.0648668 0,0.667315 -0.269766,1.9309565 l -1.646994,7.865813 q 0.184577,-0.525334 0.851894,-2.016146 1.945155,-4.31626 3.322383,-6.2188197 1.377227,-1.9167598 2.541481,-1.9167598 0.582127,0 0.922884,0.411748 0.354956,0.39755 0.354956,1.064867 0,0.5395318 -0.24137,1.6327945 z"
             id="path9624"
             style="stroke-width:0.726949" />
        </g>
      </g>
      <g
         id="g12932">
        <rect
           style="fill:#bca597;fill-opacity:1;stroke:#723c2e;stroke-width:14.482;stroke-linecap:round;stroke-linejoin:round;stroke-miterlimit:4;stroke-dasharray:none;stroke-opacity:1"
           id="rect4973"
           width="12.398969"
           height="12.398969"
           x="5.9364467"
           y="34.849861" />
        <g
           id="g9642"
           transform="translate(-1.0222616,28.173529)">
          <rect
             style="fill:#103742;fill-opacity:1;stroke:#103742;stroke-width:13.4686;stroke-linecap:round;stroke-linejoin:round;stroke-miterlimit:4;stroke-dasharray:none;stroke-opacity:1"
             id="rect9634"
             width="11.531365"
             height="11.531365"
             x="7.3925099"
             y="7.1101341" />
          <g
             id="g9640"
             transform="matrix(0.90775788,0,0,0.90775788,1.7124692,-1.3548102)">
            <path
               d="m 19.103148,25.530703 h -1.363029 l 2.995824,-14.326002 0.09939,-0.496938 q 0.09939,-0.525335 0.09939,-0.7241088 0,-0.269766 -0.141982,-0.440145 -0.141983,-0.184577 -0.397551,-0.184577 -0.39755,0 -0.894488,0.48274 -0.496937,0.4827388 -1.249443,1.6185958 -1.164254,1.732183 -2.541481,4.813196 -1.079064,2.427896 -1.845768,4.728007 -0.752505,2.285913 -1.235245,4.529232 h -1.178457 l 3.293986,-15.419265 q 0.156181,-0.7241088 0.156181,-1.1358578 0,-0.184577 -0.07099,-0.354955 -0.07099,-0.170379 -0.198774,-0.255568 -0.113586,-0.08519 -0.269767,-0.08519 -0.667316,0 -1.632795,1.306236 -0.965479,1.2920388 -2.285913,4.0322948 -0.6247225,1.235244 -1.2068495,2.584076 -0.582127,1.34883 -1.03647,2.513084 -0.454343,1.164254 -1.0222716,2.839644 -0.8234967,2.442093 -1.1926503,3.975501 H 4.7913428 l 0.042594,-0.198775 0.6105234,-2.427896 q 0.3265594,-1.391425 0.5679291,-2.47049 1.1216593,-5.082962 1.6469932,-8.305957 0.440145,-2.5272828 0.440145,-3.6489428 0,-0.8234962 -0.255568,-1.2636409 -0.241369,-0.454343 -0.6815145,-0.454343 -1.0790645,0 -1.9167595,2.8680399 Q 4.7203514,11.431872 4.4363871,13.51901 L 3.371521,12.823297 Q 3.6128907,10.991728 4.1666212,9.5151132 4.73455,8.0384982 5.5012538,7.1866048 6.2821557,6.3205135 7.077256,6.3205135 q 0.9086855,0 1.4198215,0.9654788 0.525334,0.9654789 0.525334,2.6408689 0,1.4056228 -0.255567,3.1945988 -0.07099,0.525334 -0.454343,2.669265 l -0.567929,3.095212 0.08519,-0.269766 q 1.022272,-2.782852 2.9674285,-6.559578 1.221047,-2.3427048 2.257517,-3.5353558 1.050668,-1.2068484 1.902561,-1.2068484 0.539532,0 0.894488,0.4259466 0.354955,0.4117488 0.354955,1.0648668 0,0.667315 -0.269766,1.9309568 l -1.646994,7.865813 q 0.184577,-0.525334 0.851894,-2.016146 1.945155,-4.31626 3.322383,-6.21882 1.377227,-1.9167598 2.541481,-1.9167598 0.582127,0 0.922884,0.411748 0.354956,0.39755 0.354956,1.064867 0,0.5395318 -0.24137,1.6327948 z"
               id="path9636"
               style="fill:#274535;fill-opacity:1;stroke:#274535;stroke-width:0.726949;stroke-opacity:1" />
            <path
               d="m 18.692407,25.03284 h -1.363029 l 2.995824,-14.326002 0.09939,-0.496938 q 0.09939,-0.5253347 0.09939,-0.7241085 0,-0.269766 -0.141982,-0.440145 -0.141983,-0.184577 -0.397551,-0.184577 -0.39755,0 -0.894488,0.48274 -0.496937,0.4827388 -1.249443,1.6185955 -1.164254,1.732183 -2.541481,4.813196 -1.079064,2.427896 -1.845768,4.728007 -0.752505,2.285913 -1.235245,4.529232 H 11.039567 L 14.333553,9.6135753 q 0.156181,-0.7241088 0.156181,-1.1358578 0,-0.184577 -0.07099,-0.354955 -0.07099,-0.170379 -0.198774,-0.255568 -0.113586,-0.08519 -0.269767,-0.08519 -0.667316,0 -1.632795,1.306236 -0.965479,1.2920385 -2.285913,4.0322945 -0.6247228,1.235244 -1.2068498,2.584076 -0.582127,1.34883 -1.03647,2.513084 -0.454343,1.164254 -1.0222716,2.839644 -0.8234967,2.442093 -1.1926503,3.975501 H 4.3806015 l 0.042594,-0.198775 0.6105234,-2.427896 q 0.3265594,-1.391425 0.5679291,-2.47049 1.1216593,-5.082962 1.6469932,-8.305957 0.440145,-2.5272825 0.440145,-3.6489425 0,-0.8234962 -0.255568,-1.2636409 -0.241369,-0.454343 -0.6815145,-0.454343 -1.0790645,0 -1.9167595,2.8680399 Q 4.3096101,10.934009 4.0256458,13.021147 L 2.9607797,12.325434 Q 3.2021494,10.493865 3.7558799,9.0172505 4.3238087,7.5406355 5.0905125,6.6887421 5.8714144,5.8226508 6.6665147,5.8226508 q 0.9086855,0 1.4198215,0.9654788 0.525334,0.9654789 0.525334,2.6408689 0,1.4056225 -0.255567,3.1945985 -0.07099,0.525334 -0.454343,2.669265 l -0.567929,3.095212 0.08519,-0.269766 q 1.022272,-2.782852 2.9674288,-6.559578 1.221047,-2.3427045 2.257517,-3.5353555 1.050668,-1.2068484 1.902561,-1.2068484 0.539532,0 0.894488,0.4259466 0.354955,0.4117488 0.354955,1.0648668 0,0.667315 -0.269766,1.9309565 l -1.646994,7.865813 q 0.184577,-0.525334 0.851894,-2.016146 1.945155,-4.31626 3.322383,-6.2188197 1.377227,-1.9167598 2.541481,-1.9167598 0.582127,0 0.922884,0.411748 0.354956,0.39755 0.354956,1.064867 0,0.5395318 -0.24137,1.6327945 z"
               id="path9638"
               style="stroke-width:0.726949" />
          </g>
        </g>
      </g>
      <rect
         style="fill:#bca597;fill-opacity:1;stroke:#918f8d;stroke-width:14.0074;stroke-linecap:round;stroke-linejoin:round;stroke-miterlimit:4;stroke-dasharray:none;stroke-opacity:1"
         id="rect12934"
         width="11.992633"
         height="11.992633"
         x="55.138451"
         y="50.053562" />
      <rect
         style="fill:#103742;fill-opacity:1;stroke:#103742;stroke-width:13.4686;stroke-linecap:round;stroke-linejoin:round;stroke-miterlimit:4;stroke-dasharray:none;stroke-opacity:1"
         id="rect12936"
         width="11.531365"
         height="11.531365"
         x="55.369087"
         y="50.284195" />
      <g
         id="g22518">
        <path
           d="m 67.030075,64.994945 h -1.2373 l 2.719483,-13.004541 0.09022,-0.4511 q 0.09022,-0.476877 0.09022,-0.657314 0,-0.244882 -0.128886,-0.399546 -0.128886,-0.167552 -0.36088,-0.167552 -0.360879,0 -0.811978,0.438212 -0.451099,0.438209 -1.134192,1.469293 -1.056861,1.572402 -2.307049,4.369216 -0.979529,2.203942 -1.675511,4.291886 -0.683092,2.075055 -1.121303,4.111446 h -1.069754 l 2.990142,-13.996959 q 0.141775,-0.657316 0.141775,-1.031084 0,-0.167552 -0.06444,-0.322214 -0.06444,-0.154662 -0.180439,-0.231993 -0.103108,-0.07733 -0.244883,-0.07733 -0.605761,0 -1.482182,1.185746 -0.876422,1.172858 -2.075056,3.660347 -0.567097,1.121303 -1.095527,2.345715 -0.528431,1.224412 -0.940864,2.281272 -0.412433,1.056861 -0.927975,2.577709 -0.747536,2.21683 -1.082638,3.608793 h -1.082639 l 0.03867,-0.18044 0.554208,-2.203941 q 0.296437,-1.263077 0.515542,-2.242607 1.018195,-4.614099 1.495071,-7.539798 0.399545,-2.294161 0.399545,-3.312357 0,-0.747535 -0.231994,-1.14708 -0.219105,-0.412433 -0.61865,-0.412433 -0.979529,0 -1.739954,2.603486 -0.476876,1.636845 -0.734647,3.531461 l -0.96664,-0.631539 q 0.219105,-1.662621 0.721758,-3.00303 0.515542,-1.340409 1.211523,-2.113722 0.70887,-0.786201 1.430629,-0.786201 0.824866,0 1.288854,0.876421 0.476876,0.876421 0.476876,2.397269 0,1.275966 -0.231993,2.899923 -0.06444,0.476876 -0.412433,2.423046 l -0.515542,2.809703 0.07733,-0.244882 q 0.927975,-2.526156 2.693706,-5.954509 1.108415,-2.126608 2.049279,-3.209247 0.953752,-1.095526 1.727065,-1.095526 0.489764,0 0.811978,0.386657 0.322214,0.373769 0.322214,0.966642 0,0.605759 -0.244883,1.75284 l -1.495071,7.140254 q 0.167551,-0.476875 0.773313,-1.830173 1.76573,-3.918119 3.015919,-5.645183 1.250189,-1.739953 2.30705,-1.739953 0.52843,0 0.837755,0.373767 0.322214,0.360879 0.322214,0.966641 0,0.489765 -0.219105,1.482183 z"
           id="path12938"
           style="fill:#274535;fill-opacity:1;stroke:#274535;stroke-width:0.659894;stroke-opacity:1" />
        <path
           d="M 66.383018,64.549284 H 65.145717 L 67.8652,51.544742 67.95542,51.093643 q 0.09022,-0.476878 0.09022,-0.657315 0,-0.244882 -0.128885,-0.399546 -0.128886,-0.167551 -0.36088,-0.167551 -0.360879,0 -0.811978,0.438211 -0.451099,0.43821 -1.134192,1.469293 -1.056861,1.572402 -2.30705,4.369217 -0.979528,2.203941 -1.67551,4.291885 -0.683092,2.075055 -1.121303,4.111447 h -1.06975 l 2.990142,-13.99696 q 0.141774,-0.657316 0.141774,-1.031084 0,-0.167551 -0.06444,-0.322213 -0.06444,-0.154663 -0.180438,-0.231994 -0.103109,-0.07733 -0.244883,-0.07733 -0.605762,0 -1.482183,1.185746 -0.876421,1.172858 -2.075055,3.660347 -0.567097,1.121303 -1.095528,2.345715 -0.52843,1.224411 -0.940864,2.281272 -0.412433,1.056861 -0.927975,2.577709 -0.747535,2.21683 -1.082637,3.608793 h -1.082639 l 0.03866,-0.18044 0.554207,-2.203942 q 0.296437,-1.263077 0.515542,-2.242606 1.018195,-4.614099 1.495071,-7.539797 0.399545,-2.294162 0.399545,-3.312357 0,-0.747535 -0.231994,-1.147081 -0.219104,-0.412433 -0.61865,-0.412433 -0.979529,0 -1.739953,2.603486 -0.476876,1.636845 -0.734647,3.531461 l -0.966641,-0.631539 q 0.219105,-1.662621 0.721759,-3.00303 0.515541,-1.340409 1.211523,-2.113722 0.70887,-0.786201 1.430628,-0.786201 0.824867,0 1.288854,0.876421 0.476876,0.876421 0.476876,2.39727 0,1.275965 -0.231992,2.899922 -0.06444,0.476876 -0.412434,2.423046 l -0.515542,2.809703 0.07733,-0.244882 q 0.927975,-2.526156 2.693707,-5.954509 1.108415,-2.126608 2.049279,-3.209247 0.953752,-1.095526 1.727064,-1.095526 0.489765,0 0.811979,0.386657 0.322213,0.373768 0.322213,0.966641 0,0.60576 -0.244882,1.752842 l -1.495072,7.140253 q 0.167551,-0.476875 0.773314,-1.830173 1.765729,-3.918119 3.015919,-5.645182 1.250189,-1.739953 2.307049,-1.739953 0.528431,0 0.837756,0.373767 0.322214,0.360878 0.322214,0.966642 0,0.489764 -0.219106,1.482182 z"
           id="path12940"
           style="stroke-width:0.659894" />
      </g>
      <g
         id="g12956"
         transform="translate(-3.7780639,55.553033)">
        <rect
           style="fill:#103742;fill-opacity:1;stroke:#103742;stroke-width:13.4686;stroke-linecap:round;stroke-linejoin:round;stroke-miterlimit:4;stroke-dasharray:none;stroke-opacity:1"
           id="rect12948"
           width="11.531365"
           height="11.531365"
           x="7.3925099"
           y="7.1101341" />
        <g
           id="g12954"
           transform="matrix(0.90775788,0,0,0.90775788,1.7124692,-1.3548102)">
          <path
             d="m 19.103148,25.530703 h -1.363029 l 2.995824,-14.326002 0.09939,-0.496938 q 0.09939,-0.525335 0.09939,-0.7241088 0,-0.269766 -0.141982,-0.440145 -0.141983,-0.184577 -0.397551,-0.184577 -0.39755,0 -0.894488,0.48274 -0.496937,0.4827388 -1.249443,1.6185958 -1.164254,1.732183 -2.541481,4.813196 -1.079064,2.427896 -1.845768,4.728007 -0.752505,2.285913 -1.235245,4.529232 h -1.178457 l 3.293986,-15.419265 q 0.156181,-0.7241088 0.156181,-1.1358578 0,-0.184577 -0.07099,-0.354955 -0.07099,-0.170379 -0.198774,-0.255568 -0.113586,-0.08519 -0.269767,-0.08519 -0.667316,0 -1.632795,1.306236 -0.965479,1.2920388 -2.285913,4.0322948 -0.6247225,1.235244 -1.2068495,2.584076 -0.582127,1.34883 -1.03647,2.513084 -0.454343,1.164254 -1.0222716,2.839644 -0.8234967,2.442093 -1.1926503,3.975501 H 4.7913428 l 0.042594,-0.198775 0.6105234,-2.427896 q 0.3265594,-1.391425 0.5679291,-2.47049 1.1216593,-5.082962 1.6469932,-8.305957 0.440145,-2.5272828 0.440145,-3.6489428 0,-0.8234962 -0.255568,-1.2636409 -0.241369,-0.454343 -0.6815145,-0.454343 -1.0790645,0 -1.9167595,2.8680399 Q 4.7203514,11.431872 4.4363871,13.51901 L 3.371521,12.823297 Q 3.6128907,10.991728 4.1666212,9.5151132 4.73455,8.0384982 5.5012538,7.1866048 6.2821557,6.3205135 7.077256,6.3205135 q 0.9086855,0 1.4198215,0.9654788 0.525334,0.9654789 0.525334,2.6408689 0,1.4056228 -0.255567,3.1945988 -0.07099,0.525334 -0.454343,2.669265 l -0.567929,3.095212 0.08519,-0.269766 q 1.022272,-2.782852 2.9674285,-6.559578 1.221047,-2.3427048 2.257517,-3.5353558 1.050668,-1.2068484 1.902561,-1.2068484 0.539532,0 0.894488,0.4259466 0.354955,0.4117488 0.354955,1.0648668 0,0.667315 -0.269766,1.9309568 l -1.646994,7.865813 q 0.184577,-0.525334 0.851894,-2.016146 1.945155,-4.31626 3.322383,-6.21882 1.377227,-1.9167598 2.541481,-1.9167598 0.582127,0 0.922884,0.411748 0.354956,0.39755 0.354956,1.064867 0,0.5395318 -0.24137,1.6327948 z"
             id="path12950"
             style="fill:#274535;fill-opacity:1;stroke:#274535;stroke-width:0.726949;stroke-opacity:1" />
          <path
             d="m 18.692407,25.03284 h -1.363029 l 2.995824,-14.326002 0.09939,-0.496938 q 0.09939,-0.5253347 0.09939,-0.7241085 0,-0.269766 -0.141982,-0.440145 -0.141983,-0.184577 -0.397551,-0.184577 -0.39755,0 -0.894488,0.48274 -0.496937,0.4827388 -1.249443,1.6185955 -1.164254,1.732183 -2.541481,4.813196 -1.079064,2.427896 -1.845768,4.728007 -0.752505,2.285913 -1.235245,4.529232 H 11.039567 L 14.333553,9.6135753 q 0.156181,-0.7241088 0.156181,-1.1358578 0,-0.184577 -0.07099,-0.354955 -0.07099,-0.170379 -0.198774,-0.255568 -0.113586,-0.08519 -0.269767,-0.08519 -0.667316,0 -1.632795,1.306236 -0.965479,1.2920385 -2.285913,4.0322945 -0.6247228,1.235244 -1.2068498,2.584076 -0.582127,1.34883 -1.03647,2.513084 -0.454343,1.164254 -1.0222716,2.839644 -0.8234967,2.442093 -1.1926503,3.975501 H 4.3806015 l 0.042594,-0.198775 0.6105234,-2.427896 q 0.3265594,-1.391425 0.5679291,-2.47049 1.1216593,-5.082962 1.6469932,-8.305957 0.440145,-2.5272825 0.440145,-3.6489425 0,-0.8234962 -0.255568,-1.2636409 -0.241369,-0.454343 -0.6815145,-0.454343 -1.0790645,0 -1.9167595,2.8680399 Q 4.3096101,10.934009 4.0256458,13.021147 L 2.9607797,12.325434 Q 3.2021494,10.493865 3.7558799,9.0172505 4.3238087,7.5406355 5.0905125,6.6887421 5.8714144,5.8226508 6.6665147,5.8226508 q 0.9086855,0 1.4198215,0.9654788 0.525334,0.9654789 0.525334,2.6408689 0,1.4056225 -0.255567,3.1945985 -0.07099,0.525334 -0.454343,2.669265 l -0.567929,3.095212 0.08519,-0.269766 q 1.022272,-2.782852 2.9674288,-6.559578 1.221047,-2.3427045 2.257517,-3.5353555 1.050668,-1.2068484 1.902561,-1.2068484 0.539532,0 0.894488,0.4259466 0.354955,0.4117488 0.354955,1.0648668 0,0.667315 -0.269766,1.9309565 l -1.646994,7.865813 q 0.184577,-0.525334 0.851894,-2.016146 1.945155,-4.31626 3.322383,-6.2188197 1.377227,-1.9167598 2.541481,-1.9167598 0.582127,0 0.922884,0.411748 0.354956,0.39755 0.354956,1.064867 0,0.5395318 -0.24137,1.6327945 z"
             id="path12952"
             style="stroke-width:0.726949" />
        </g>
      </g>
      <g
         id="g24654"
         inkscape:export-filename="/Users/mallorydazza/MalloryDazza_Website/static/frontpage.png"
         inkscape:export-xdpi="600"
         inkscape:export-ydpi="600">
        <rect
           style="fill:#090c11;fill-opacity:0.986667;stroke:none;stroke-width:4.35451;stroke-linecap:round;stroke-linejoin:round;stroke-miterlimit:4;stroke-dasharray:none;stroke-opacity:1"
           id="rect22510"
           width="51.159607"
           height="27.888536"
           x="-54.926044"
           y="33.583969" />
        <path
           d="m -22.400781,55.68302 h -1.424574 l 3.131097,-11.859769 0.103875,-0.41139 q 0.103876,-0.434898 0.103876,-0.599452 0,-0.223325 -0.148394,-0.364374 -0.148394,-0.152803 -0.415502,-0.152803 -0.415501,0 -0.934877,0.399637 -0.519376,0.399634 -1.305861,1.339953 -1.216824,1.433986 -2.656238,3.9846 -1.127788,2.009932 -1.929112,3.914077 -0.786483,1.892391 -1.291021,3.749521 h -1.231669 l 3.442722,-12.764826 q 0.163234,-0.599453 0.163234,-0.940319 0,-0.152802 -0.07419,-0.29385 -0.07419,-0.141047 -0.20775,-0.211571 -0.118714,-0.07052 -0.281948,-0.07052 -0.697448,0 -1.706522,1.081366 -1.009075,1.069613 -2.389131,3.338131 -0.652932,1.022597 -1.261343,2.139225 -0.608414,1.116629 -1.083271,2.080455 -0.474858,0.963827 -1.068431,2.350797 -0.860682,2.021685 -1.246504,3.291116 h -1.246505 l 0.04452,-0.164556 0.638092,-2.009932 q 0.341305,-1.15189 0.593573,-2.045193 1.172307,-4.207926 1.721362,-6.87608 0.460019,-2.092209 0.460019,-3.020774 0,-0.681731 -0.267108,-1.046104 -0.252269,-0.376127 -0.712288,-0.376127 -1.127788,0 -2.003309,2.374304 -0.549055,1.492756 -0.845841,3.220591 l -1.112949,-0.575945 q 0.252269,-1.516263 0.831002,-2.738677 0.593573,-1.222415 1.394896,-1.927654 0.816163,-0.716993 1.647166,-0.716993 0.949715,0 1.483932,0.799271 0.549054,0.799271 0.549054,2.18624 0,1.163645 -0.267107,2.644647 -0.07419,0.434897 -0.474857,2.209749 l -0.593574,2.562368 0.08903,-0.223325 q 1.068431,-2.303782 3.101419,-5.430342 1.276182,-1.939405 2.359453,-2.926741 1.098109,-0.999088 1.988469,-0.999088 0.563894,0 0.934877,0.35262 0.370984,0.340866 0.370984,0.88155 0,0.552434 -0.281948,1.598539 l -1.721362,6.511708 q 0.192912,-0.434897 0.89036,-1.669066 2.032987,-3.573212 3.472401,-5.148245 1.439415,-1.586787 2.65624,-1.586787 0.608412,0 0.964556,0.340865 0.370983,0.329111 0.370983,0.881548 0,0.446652 -0.252268,1.351709 z"
           id="path22520"
           style="fill:#92460d;fill-opacity:1;stroke:#92460d;stroke-width:0.676192;stroke-opacity:1" />
        <path
           d="m -23.145775,55.27659 h -1.424576 l 3.131098,-11.85977 0.103875,-0.411389 q 0.103876,-0.434899 0.103876,-0.599453 0,-0.223325 -0.148393,-0.364374 -0.148394,-0.152802 -0.415502,-0.152802 -0.415501,0 -0.934877,0.399636 -0.519376,0.399635 -1.305861,1.339953 -1.216824,1.433986 -2.656239,3.984601 -1.127787,2.009931 -1.929111,3.914076 -0.786483,1.892391 -1.291021,3.749522 h -1.231665 l 3.442723,-12.764827 q 0.163233,-0.599453 0.163233,-0.940319 0,-0.152802 -0.07419,-0.293849 -0.07419,-0.141048 -0.207749,-0.211572 -0.118715,-0.07052 -0.281948,-0.07052 -0.697448,0 -1.706522,1.081366 -1.009074,1.069613 -2.389131,3.338132 -0.652931,1.022596 -1.261344,2.139224 -0.608412,1.116628 -1.083271,2.080455 -0.474858,0.963827 -1.068431,2.350797 -0.86068,2.021685 -1.246502,3.291116 h -1.246505 l 0.04451,-0.164556 0.63809,-2.009932 q 0.341305,-1.15189 0.593573,-2.045193 1.172307,-4.207926 1.721362,-6.876079 0.460019,-2.09221 0.460019,-3.020774 0,-0.681731 -0.267108,-1.046105 -0.252267,-0.376127 -0.712288,-0.376127 -1.127788,0 -2.003308,2.374304 -0.549055,1.492756 -0.845841,3.220591 l -1.11295,-0.575945 q 0.252268,-1.516263 0.831003,-2.738677 0.593572,-1.222415 1.394896,-1.927654 0.816163,-0.716993 1.647165,-0.716993 0.949716,0 1.483931,0.799271 0.549055,0.799271 0.549055,2.186241 0,1.163644 -0.267105,2.644646 -0.07419,0.434897 -0.47486,2.209749 l -0.593573,2.562368 0.08903,-0.223325 q 1.068431,-2.303782 3.10142,-5.430342 1.276182,-1.939405 2.359453,-2.926741 1.098109,-0.999088 1.988468,-0.999088 0.563895,0 0.934878,0.35262 0.370983,0.340866 0.370983,0.881549 0,0.552435 -0.281947,1.598541 l -1.721363,6.511707 q 0.192911,-0.434897 0.890361,-1.669066 2.032986,-3.573212 3.472402,-5.148244 1.439414,-1.586787 2.656238,-1.586787 0.608413,0 0.964557,0.340864 0.370983,0.329111 0.370983,0.88155 0,0.446651 -0.252269,1.351708 z"
           id="path22522"
           style="stroke-width:0.676192" />
      </g>
    </g>
  </g>
</svg>
