<!--?xml version="1.0" encoding="UTF-8" standalone="no"?-->
<!-- Created with Inkscape (http://www.inkscape.org/) -->

<svg width="100%" height="100%" viewBox="0 0 51 51.700001" version="1.1" id="svg5" sodipodi:docname="letter-m.svg" inkscape:version="1.1.1 (c3084ef, 2021-09-22)" xmlns:inkscape="http://www.inkscape.org/namespaces/inkscape" xmlns:sodipodi="http://sodipodi.sourceforge.net/DTD/sodipodi-0.dtd" xmlns="http://www.w3.org/2000/svg" xmlns:svg="http://www.w3.org/2000/svg">
  <sodipodi:namedview id="namedview7860" pagecolor="#505050" bordercolor="#ffffff" borderopacity="1" inkscape:pageshadow="0" inkscape:pageopacity="0" inkscape:pagecheckerboard="1" inkscape:document-units="mm" showgrid="false" inkscape:zoom="2.3070274" inkscape:cx="99.912123" inkscape:cy="104.46343" inkscape:window-width="1277" inkscape:window-height="679" inkscape:window-x="0" inkscape:window-y="23" inkscape:window-maximized="0" inkscape:current-layer="svg5"></sodipodi:namedview>
  <defs id="defs2"></defs>
  <g id="layer1" transform="matrix(1.3141603,0,0,1.3141603,-237.51395,-786.93344)">
    <g aria-label="M" id="text1904" style="font-size:10.5833px;line-height:1.25;font-family:'Savoye LET';-inkscape-font-specification:'Savoye LET, Normal';fill:#103742;stroke:#103742;stroke-width:0.12;stroke-linecap:round;stroke-linejoin:round">
      <path d="m 212.54358,637.56242 h -2.69521 l 5.92373,-28.32717 0.19663,-0.98259 q 0.19664,-1.03873 0.19664,-1.4318 0,-0.5335 -0.28086,-0.87033 -0.28089,-0.36509 -0.78608,-0.36509 -0.78605,0 -1.76868,0.95456 -0.98264,0.95452 -2.47056,3.20049 -2.30213,3.42508 -5.02534,9.51726 -2.13368,4.80072 -3.64968,9.34881 -1.48793,4.52001 -2.44248,8.95576 h -2.33021 l 6.51329,-30.48888 q 0.30858,-1.4318 0.30858,-2.24596 0,-0.36509 -0.14018,-0.70187 -0.14017,-0.33684 -0.39331,-0.50524 -0.22438,-0.16841 -0.53352,-0.16841 -1.31949,0 -3.22857,2.58289 -1.90908,2.55476 -4.52001,7.97313 -1.23524,2.44245 -2.38628,5.10957 -1.15109,2.66705 -2.04947,4.96917 -0.89841,2.30208 -2.02137,5.61488 -1.62829,4.82886 -2.35825,7.86087 h -2.35824 l 0.0842,-0.39332 1.20721,-4.80072 q 0.64568,-2.75132 1.12295,-4.88497 2.21793,-10.05068 3.25668,-16.42358 0.87028,-4.99728 0.87028,-7.21513 0,-1.62832 -0.50526,-2.49865 -0.47754,-0.89836 -1.3476,-0.89836 -2.13366,0 -3.79005,5.67105 -1.03873,3.56546 -1.60021,7.69241 l -2.1056,-1.37568 q 0.47702,-3.6216 1.57215,-6.54132 1.12301,-2.91978 2.63901,-4.60421 1.54409,-1.71257 3.11629,-1.71257 1.79672,0 2.80744,1.90905 1.03873,1.90908 1.03873,5.22188 0,2.77934 -0.50524,6.31673 -0.14017,1.0388 -0.89836,5.27805 l -1.123,6.12021 0.1684,-0.53349 q 2.02139,-5.50264 5.86756,-12.97046 2.41442,-4.63229 4.46389,-6.99056 2.07748,-2.38628 3.76197,-2.38628 1.06683,0 1.76868,0.84219 0.70187,0.8142 0.70187,2.10564 0,1.31944 -0.53351,3.81808 l -3.25661,15.55331 q 0.36509,-1.03876 1.68448,-3.98657 3.84617,-8.53465 6.56941,-12.29669 2.72324,-3.79 5.02537,-3.79 1.15104,0 1.8248,0.81415 0.70185,0.78608 0.70185,2.10557 0,1.06684 -0.47752,3.2286 z" id="path7617" style="stroke-width: 0.651932;" class="svg-elem-1"></path>
    </g>
  </g>
</svg>
