<?xml version="1.0" encoding="UTF-8" standalone="no"?>
<!-- Created with Inkscape (http://www.inkscape.org/) -->

<svg
   width="26mm"
   height="37mm"
   viewBox="0 0 26 37"
   version="1.1"
   id="svg5"
   inkscape:version="1.1.1 (c3084ef, 2021-09-22)"
   sodipodi:docname="logo-M-gris.svg"
   xmlns:inkscape="http://www.inkscape.org/namespaces/inkscape"
   xmlns:sodipodi="http://sodipodi.sourceforge.net/DTD/sodipodi-0.dtd"
   xmlns="http://www.w3.org/2000/svg"
   xmlns:svg="http://www.w3.org/2000/svg">
  <sodipodi:namedview
     id="namedview7"
     pagecolor="#505050"
     bordercolor="#ffffff"
     borderopacity="1"
     inkscape:pageshadow="0"
     inkscape:pageopacity="0"
     inkscape:pagecheckerboard="1"
     inkscape:document-units="mm"
     showgrid="false"
     inkscape:zoom="4.5757133"
     inkscape:cx="42.834851"
     inkscape:cy="59.772101"
     inkscape:window-width="1440"
     inkscape:window-height="800"
     inkscape:window-x="0"
     inkscape:window-y="23"
     inkscape:window-maximized="1"
     inkscape:current-layer="text17222" />
  <defs
     id="defs2" />
  <g
     inkscape:label="Layer 1"
     inkscape:groupmode="layer"
     id="layer1">
    <text
       xml:space="preserve"
       style="font-style:normal;font-weight:normal;font-size:10.5833px;line-height:1.25;font-family:Kokonor;fill:#000000;fill-opacity:1;stroke:none;stroke-width:0.264583;-inkscape-font-specification:'Kokonor, Normal';font-stretch:normal;font-variant:normal;font-variant-ligatures:normal;font-variant-caps:normal;font-variant-numeric:normal;font-variant-east-asian:normal"
       x="4.4517922"
       y="30.751614"
       id="text12972"><tspan
         sodipodi:role="line"
         id="tspan13236" /></text>
    <text
       xml:space="preserve"
       style="font-style:normal;font-weight:normal;font-size:10.5833px;line-height:1.25;font-family:sans-serif;fill:#000000;fill-opacity:1;stroke:none;stroke-width:0.264583"
       x="8.0817156"
       y="34.107578"
       id="text15302"><tspan
         sodipodi:role="line"
         id="tspan15300"
         style="stroke-width:0.264583"
         x="8.0817156"
         y="34.107578" /></text>
    <text
       xml:space="preserve"
       style="font-size:10.5833px;line-height:1.25;font-family:Kokonor;-inkscape-font-specification:'Kokonor, Normal';stroke-width:0.264583"
       x="10.88977"
       y="35.134914"
       id="text16692"><tspan
         sodipodi:role="line"
         id="tspan16690"
         style="stroke-width:0.264583"
         x="10.88977"
         y="35.134914" /></text>
    <g
       aria-label="M"
       id="text17222"
       style="font-size:36.4308px;line-height:1.25;font-family:'Savoye LET';-inkscape-font-specification:'Savoye LET, Normal';fill:#918f8d;stroke:#918f8d;stroke-width:0.91077">
      <path
         d="m 20.866895,30.527252 h -1.707694 l 3.753369,-17.948573 0.124519,-0.622597 q 0.12452,-0.658174 0.12452,-0.907212 0,-0.337981 -0.177885,-0.551443 -0.177885,-0.23125 -0.498078,-0.23125 -0.498077,0 -1.120674,0.604808 -0.622596,0.604808 -1.565386,2.027886 -1.458655,2.170194 -3.184137,6.030294 -1.351924,3.04183 -2.312502,5.923563 -0.942789,2.863945 -1.547598,5.674524 h -1.476443 l 4.126926,-19.318286 q 0.195674,-0.907212 0.195674,-1.4230783 0,-0.2312502 -0.08894,-0.4447119 -0.08894,-0.2134617 -0.249038,-0.3201926 -0.142308,-0.1067309 -0.337981,-0.1067309 -0.836059,0 -2.045675,1.6365397 -1.209617,1.618752 -2.863945,5.051928 -0.7826931,1.547597 -1.5120207,3.237503 -0.7293276,1.689905 -1.2985588,3.14856 -0.5692313,1.458655 -1.2807704,3.557696 -1.0317317,3.059618 -1.4942321,4.980773 H 2.9361099 l 0.053365,-0.249038 0.7649045,-3.04183 Q 4.1635149,25.493113 4.465919,24.141189 5.8712087,17.772914 6.5293823,13.73493 7.0808251,10.568581 7.0808251,9.163291 q 0,-1.0317317 -0.3201926,-1.5831744 -0.3024041,-0.5692313 -0.8538469,-0.5692313 -1.3519242,0 -2.4014444,3.5932727 Q 2.8471675,12.863294 2.491398,15.4782 L 1.1572622,14.606565 Q 1.4596663,12.311852 2.1534169,10.46185 2.864956,8.6118482 3.8255338,7.5445396 4.8039,6.4594425 5.8000548,6.4594425 q 1.1384625,0 1.7788477,1.2096164 0.6581736,1.2096165 0.6581736,3.3086571 0,1.761059 -0.3201925,4.002407 -0.088942,0.658174 -0.5692313,3.344234 l -0.7115391,3.877888 0.1067309,-0.337981 q 1.2807703,-3.486542 3.7177919,-8.218277 1.529809,-2.935098 2.828368,-4.4293305 1.316347,-1.5120206 2.383656,-1.5120206 0.675962,0 1.120674,0.5336543 0.444712,0.5158659 0.444712,1.3341358 0,0.836058 -0.337981,2.419233 l -2.063464,9.854816 q 0.23125,-0.658173 1.067309,-2.525963 2.437021,-5.407698 4.162504,-7.791353 1.725482,-2.4014449 3.184137,-2.4014449 0.729328,0 1.156251,0.5158658 0.444712,0.4980771 0.444712,1.3341361 0,0.675962 -0.302404,2.045675 z"
         id="path916" />
    </g>
  </g>
</svg>
